<svg width="33" height="33" viewBox="0 0 33 33" fill="none" xmlns="http://www.w3.org/2000/svg">
<path d="M22.0832 3.37426C22.4699 3.76103 22.6871 4.28554 22.6871 4.83244C22.6871 5.37935 22.4699 5.90386 22.0832 6.29063L11.8738 16.5L22.0832 26.7094C22.4589 27.0984 22.6668 27.6194 22.6621 28.1601C22.6574 28.7009 22.4405 29.2182 22.0581 29.6006C21.6757 29.983 21.1584 30.1999 20.6176 30.2046C20.0768 30.2093 19.5558 30.0015 19.1668 29.6258L7.49926 17.9582C7.1126 17.5714 6.89539 17.0469 6.89539 16.5C6.89539 15.9531 7.1126 15.4286 7.49926 15.0418L19.1668 3.37426C19.5536 2.9876 20.0781 2.77039 20.625 2.77039C21.1719 2.77039 21.6964 2.9876 22.0832 3.37426Z" fill="white"/>
</svg>
