<svg width="33" height="33" viewBox="0 0 33 33" fill="none" xmlns="http://www.w3.org/2000/svg">
<path d="M10.9168 3.37426C10.5301 3.76103 10.3129 4.28554 10.3129 4.83244C10.3129 5.37935 10.5301 5.90386 10.9168 6.29063L21.1262 16.5L10.9168 26.7094C10.5411 27.0984 10.3332 27.6194 10.3379 28.1601C10.3426 28.7009 10.5595 29.2182 10.9419 29.6006C11.3243 29.983 11.8416 30.1999 12.3824 30.2046C12.9232 30.2093 13.4442 30.0015 13.8332 29.6258L25.5007 17.9582C25.8874 17.5714 26.1046 17.0469 26.1046 16.5C26.1046 15.9531 25.8874 15.4286 25.5007 15.0418L13.8332 3.37426C13.4464 2.9876 12.9219 2.77039 12.375 2.77039C11.8281 2.77039 11.3036 2.9876 10.9168 3.37426Z" fill="white"/>
</svg>
