<svg width="32" height="32" viewBox="0 0 32 32" fill="none" xmlns="http://www.w3.org/2000/svg">
<path d="M5.31429 7C4.43528 7 3.59228 7.3448 2.97073 7.95856C2.34918 8.57231 2 9.40475 2 10.2727V20.0909C2 20.9589 2.34918 21.7913 2.97073 22.4051C3.59228 23.0188 4.43528 23.3636 5.31429 23.3636H10.2857V20.0909H5.31429V10.2727H10.2857V7H5.31429ZM15.2571 7C14.3781 7 13.5351 7.3448 12.9136 7.95856C12.292 8.57231 11.9429 9.40475 11.9429 10.2727V20.0909C11.9429 20.9589 12.292 21.7913 12.9136 22.4051C13.5351 23.0188 14.3781 23.3636 15.2571 23.3636H18.5714C19.4504 23.3636 20.2934 23.0188 20.915 22.4051C21.5365 21.7913 21.8857 20.9589 21.8857 20.0909V10.2727C21.8857 9.40475 21.5365 8.57231 20.915 7.95856C20.2934 7.3448 19.4504 7 18.5714 7H15.2571ZM15.2571 10.2727H18.5714V20.0909H15.2571V10.2727ZM23.5429 12.7273V15.1818H28.5143V17.6364H26.0286C25.3693 17.6364 24.7371 17.895 24.2709 18.3553C23.8047 18.8156 23.5429 19.4399 23.5429 20.0909V25H31V22.5455H26.0286V20.0909H28.5143C29.1735 20.0909 29.8058 19.8323 30.2719 19.372C30.7381 18.9117 31 18.2873 31 17.6364V15.1818C31 14.5308 30.7381 13.9065 30.2719 13.4462C29.8058 12.9859 29.1735 12.7273 28.5143 12.7273H23.5429Z" fill="white"/>
</svg>
