<svg width="83" height="92" viewBox="0 0 83 92" fill="none" xmlns="http://www.w3.org/2000/svg">
<path d="M0.333313 50.5833C0.333313 61.5235 4.67928 72.0156 12.4152 79.7514C20.151 87.4873 30.6431 91.8333 41.5833 91.8333C41.5833 80.8931 37.2373 70.401 29.5015 62.6651C21.7656 54.9293 11.2735 50.5833 0.333313 50.5833ZM41.5833 91.8333C52.5235 91.8333 63.0156 87.4873 70.7515 79.7514C78.4873 72.0156 82.8333 61.5235 82.8333 50.5833C71.8931 50.5833 61.401 54.9293 53.6652 62.6651C45.9293 70.401 41.5833 80.8931 41.5833 91.8333ZM69.0833 4.74996V27.6666C69.0833 34.9601 66.186 41.9548 61.0288 47.1121C55.8715 52.2693 48.8768 55.1666 41.5833 55.1666C34.2899 55.1666 27.2951 52.2693 22.1379 47.1121C16.9806 41.9548 14.0833 34.9601 14.0833 27.6666V4.74996C17.475 4.74996 20.8208 5.29996 23.9833 6.53746C26.5041 7.59163 28.75 9.14996 30.6291 11.1208L41.5833 0.166626L52.5375 11.1208C54.4166 9.14996 56.6625 7.59163 59.1833 6.53746C62.3425 5.32763 65.7006 4.72131 69.0833 4.74996Z" fill="white"/>
</svg>
