<svg width="28" height="28" viewBox="0 0 28 28" fill="none" xmlns="http://www.w3.org/2000/svg">
<path d="M11.7 26V18.2H16.25C16.77 18.2 17.225 18.395 17.615 18.785C18.005 19.175 18.2 19.63 18.2 20.15V21.45C18.2 21.97 18.005 22.425 17.615 22.815C17.225 23.205 16.77 23.4 16.25 23.4H13.65V26H11.7ZM19.5 26V18.2H21.45V20.8H24.05V18.2H26V26H24.05V22.75H21.45V26H19.5ZM13.65 21.45H16.25V20.15H13.65V21.45ZM9.1 25.935C6.45667 25.6317 4.27917 24.4942 2.5675 22.5225C0.855833 20.5508 0 18.1567 0 15.34C0 13.1733 0.861466 10.8173 2.5844 8.2719C4.30733 5.7265 6.91253 2.9692 10.4 0C13.8883 2.96833 16.494 5.72563 18.2169 8.2719C19.9398 10.8182 20.8009 13.1742 20.8 15.34V15.6H11.7C10.985 15.6 10.3731 15.8548 9.8644 16.3644C9.35567 16.874 9.10087 17.4859 9.1 18.2V25.935Z" fill="white"/>
</svg>
