<svg width="32" height="32" viewBox="0 0 32 32" fill="none" xmlns="http://www.w3.org/2000/svg">
<path d="M16 2.66663C17.3683 2.66662 18.6843 3.19254 19.6758 4.13559C20.6672 5.07864 21.2583 6.36668 21.3267 7.73329L21.3334 7.99996L21.3347 16.9706L21.408 17.048C22.476 18.2115 23.1384 19.6898 23.296 21.2613L23.324 21.6293L23.3334 22C23.3332 23.177 23.0498 24.3367 22.507 25.3812C21.9641 26.4256 21.1779 27.324 20.2146 28.0005C19.2514 28.6769 18.1395 29.1116 16.9728 29.2677C15.8062 29.4239 14.6191 29.2969 13.5118 28.8975C12.4046 28.4982 11.4098 27.8381 10.6114 26.9732C9.81305 26.1083 9.23461 25.0639 8.92497 23.9283C8.61534 22.7927 8.5836 21.5993 8.83245 20.4488C9.0813 19.2984 9.60342 18.2247 10.3547 17.3186L10.5934 17.0453L10.6654 16.9693L10.6667 7.99996C10.6666 6.67842 11.1571 5.4039 12.0432 4.42345C12.9293 3.44299 14.1479 2.82644 15.4627 2.69329L15.7334 2.67329L16 2.66663ZM16 5.33329C15.3273 5.33308 14.6793 5.58717 14.186 6.04462C13.6926 6.50208 13.3905 7.12909 13.34 7.79996L13.3334 7.99996V18.124L12.8894 18.5213C12.1938 19.1433 11.7007 19.9596 11.4738 20.8646C11.2468 21.7697 11.2964 22.722 11.616 23.5986C11.9357 24.4753 12.5109 25.2359 13.2672 25.7824C14.0235 26.3289 14.9263 26.6361 15.859 26.6643C16.7916 26.6926 17.7114 26.4406 18.4994 25.9409C19.2874 25.4412 19.9075 24.7167 20.2797 23.8611C20.6518 23.0054 20.759 22.0578 20.5872 21.1407C20.4154 20.2235 19.9726 19.3789 19.316 18.716L19.112 18.5226L18.668 18.1253L18.6667 7.99996C18.6667 7.29272 18.3857 6.61444 17.8856 6.11434C17.3855 5.61424 16.7073 5.33329 16 5.33329ZM16 10.6666C16.3536 10.6666 16.6928 10.8071 16.9428 11.0572C17.1929 11.3072 17.3334 11.6463 17.3334 12V18.944C18.0352 19.2503 18.6102 19.7889 18.9616 20.4693C19.3131 21.1497 19.4195 21.9304 19.263 22.68C19.1066 23.4297 18.6968 24.1026 18.1025 24.5856C17.5083 25.0687 16.7658 25.3323 16 25.3323C15.2342 25.3323 14.4918 25.0687 13.8975 24.5856C13.3033 24.1026 12.8935 23.4297 12.737 22.68C12.5805 21.9304 12.687 21.1497 13.0384 20.4693C13.3898 19.7889 13.9648 19.2503 14.6667 18.944V12C14.6667 11.6463 14.8072 11.3072 15.0572 11.0572C15.3073 10.8071 15.6464 10.6666 16 10.6666Z" fill="white"/>
</svg>
