<svg width="94" height="93" viewBox="0 0 94 93" fill="none" xmlns="http://www.w3.org/2000/svg">
<path d="M16.3772 0.00077625C12.7573 5.25967 10.5848 10.1552 10.003 14.1435L14.6488 21.743L20.204 15.2472C20.3725 11.1303 19.1385 5.80017 16.3772 0V0.00077625ZM88.9921 0.570779C83.4687 3.75946 79.4071 7.24216 77.1655 10.59L78.0873 19.4569L85.8991 15.9756C87.8185 12.3314 88.9923 6.9918 88.9923 0.570779H88.9921ZM71.1856 5.86519C69.2151 9.94778 67.9251 13.7913 67.2738 17.1826L70.8399 28.3781L74.6788 21.7309L73.4173 9.6555H73.4231C72.7293 8.36203 71.9827 7.09753 71.1854 5.86519H71.1856ZM2.57954 12.4399C2.55528 16.9743 3.04397 20.9991 3.91382 24.3395L11.9437 32.9088L12.5502 25.261L6.21848 14.9024L6.2243 14.8961C5.04301 14.0285 3.82709 13.2092 2.57954 12.4399ZM28.3614 14.4839C26.7283 15.164 25.1999 15.8838 23.7824 16.637L16.1649 25.5587L15.5644 33.2003L25.3533 25.6131C26.6559 22.5265 27.6996 18.7693 28.3614 14.4839ZM62.7557 18.681C58.0932 29.9549 59.6194 37.6734 64.2836 39.7383L68.3897 32.6303L64.587 20.7066C63.9939 20.0157 63.3831 19.3403 62.7553 18.6808L62.7557 18.681ZM91.0967 18.7233C90.2136 18.7179 89.3558 18.7396 88.5193 18.7777L77.8201 23.5446L73.9813 30.1975L86.0806 27.5474C88.5836 25.3214 91.144 22.3799 93.5828 18.7957C92.737 18.7538 91.906 18.7282 91.0963 18.7231L91.0967 18.7233ZM47.2171 20.4157C42.7068 24.9256 39.6808 29.3438 38.3808 33.1578L41.5707 41.485L48.212 36.0994C49.1232 32.0812 48.8788 26.6176 47.2171 20.4157ZM0.474976 27.6318C1.11155 39.814 5.80859 46.1293 10.9066 45.9903L11.5556 37.7964L3.00399 28.6748C2.16998 28.3059 1.32658 27.9581 0.474976 27.6318ZM28.2706 29.8395C27.0638 30.0927 25.8663 30.388 24.6802 30.725L15.1763 38.0879L14.5335 46.1906C19.675 47.6481 25.6269 42.199 28.2702 29.8396L28.2706 29.8395ZM31.3875 30.1428C30.5413 34.5939 30.2909 38.636 30.5386 42.0785L36.8826 51.9764L38.866 44.565L34.5174 33.2238H34.5232C33.5206 32.1544 32.4746 31.1265 31.3879 30.1428H31.3875ZM83.2851 31.8775L71.5312 34.4428L67.468 41.478C71.4819 45.0093 79.1976 42.6493 86.9 32.6233C85.704 32.333 84.4983 32.0843 83.2851 31.8775ZM56.369 36.8322C54.6394 37.2049 53.0107 37.6396 51.4808 38.1242L42.365 45.5049L40.3816 52.9167L51.3838 47.2336C53.2261 44.4342 54.9398 40.928 56.3688 36.8324L56.369 36.8322ZM86.4751 41.6964C81.4582 45.6408 77.9268 49.6651 76.1832 53.2986L78.3608 61.9413L85.596 57.3863C86.9789 53.5067 87.3884 48.0533 86.4751 41.6964ZM62.5373 43.3644C55.8543 58.4195 51.0104 74.2343 50.3163 92.4716H53.9495C54.64 74.851 59.3007 59.5896 65.8487 44.8383L62.5371 43.3643L62.5373 43.3644ZM26.5604 44.7047C24.9742 56.8048 28.4457 63.8626 33.4864 64.6461L35.6154 56.7134L28.8589 46.1848C28.1052 45.6722 27.3388 45.1788 26.5602 44.7049L26.5604 44.7047ZM69.5969 49.4658C68.228 53.7827 67.4975 57.7665 67.3345 61.2137L72.4593 71.8091L75.3097 64.6824L72.3442 52.9045H72.3559C71.5213 51.7695 70.6028 50.6221 69.5967 49.466L69.5969 49.4658ZM10.8946 49.7632C9.21308 64.2382 9.31671 78.4545 13.26 92.472H17.0328C12.9811 78.7368 12.8089 64.7152 14.4974 50.1816L10.8949 49.7632H10.8946ZM53.4885 51.9162C52.2051 51.9473 50.9747 52.021 49.7949 52.1346L39.1144 57.6594L37.0099 65.5016C41.8016 67.8751 48.6424 63.5958 53.4881 51.9162H53.4885ZM93.6076 59.0848C91.847 59.2486 90.1795 59.4831 88.6043 59.7824L78.6762 66.0349L75.8256 73.1492L87.4216 68.8187C89.5836 66.2583 91.7018 62.9819 93.6076 59.0848ZM63.0774 63.3545C60.0638 75.1812 62.6707 82.605 67.5833 83.981L70.6342 76.3577L65.1818 65.0954C64.5161 64.5132 63.8132 63.9338 63.0774 63.3545ZM32.8555 68.3219C30.3957 76.3243 28.5353 84.3423 27.6457 92.472H31.2968C32.1715 84.7629 33.9538 77.0953 36.3244 69.3827L32.8553 68.3217L32.8555 68.3219ZM85.2561 73.495L73.9997 77.7042L70.9793 85.2489C75.4539 88.179 82.7545 84.7431 88.9556 73.7194C87.7254 73.6016 86.4915 73.5268 85.2561 73.4952V73.495ZM66.4792 87.7897C66.1155 89.2866 65.8611 90.8478 65.7697 92.472H69.3964C69.4837 91.1744 69.6972 89.909 70.0031 88.6512L66.4794 87.7895L66.4792 87.7897Z" fill="white"/>
</svg>
