<svg width="36" height="36" viewBox="0 0 36 36" fill="none" xmlns="http://www.w3.org/2000/svg">
<path fill-rule="evenodd" clip-rule="evenodd" d="M3.51757 3.36748C3.74147 3.17298 4.01801 3.04922 4.31223 3.01184C4.60645 2.97446 4.90515 3.02514 5.17057 3.15748L32.1706 16.6575C32.4202 16.7819 32.6302 16.9734 32.7769 17.2106C32.9237 17.4477 33.0015 17.7211 33.0015 18C33.0015 18.2789 32.9237 18.5522 32.7769 18.7894C32.6302 19.0265 32.4202 19.2181 32.1706 19.3425L5.17057 32.8425C4.90517 32.9753 4.60634 33.0264 4.31189 32.9893C4.01744 32.9522 3.74062 32.8286 3.51644 32.6341C3.29226 32.4396 3.13081 32.183 3.05251 31.8968C2.97421 31.6105 2.98258 31.3075 3.07657 31.026L6.91957 19.5H15.0001C15.3979 19.5 15.7794 19.3419 16.0607 19.0606C16.342 18.7793 16.5001 18.3978 16.5001 18C16.5001 17.6022 16.342 17.2206 16.0607 16.9393C15.7794 16.658 15.3979 16.5 15.0001 16.5H6.91957L3.07507 4.97398C2.98157 4.6926 2.97355 4.38981 3.05205 4.10388C3.13054 3.81794 3.29351 3.56169 3.51757 3.36748Z" fill="#57CC98"/>
</svg>
