<?xml version="1.0" standalone="no"?>
<!DOCTYPE svg PUBLIC "-//W3C//DTD SVG 20010904//EN"
 "http://www.w3.org/TR/2001/REC-SVG-20010904/DTD/svg10.dtd">
<svg version="1.0" xmlns="http://www.w3.org/2000/svg"
 width="3897.000000pt" height="3897.000000pt" viewBox="0 0 3897.000000 3897.000000"
 preserveAspectRatio="xMidYMid meet">
<metadata>
Created by potrace 1.14, written by Peter Selinger 2001-2017
</metadata>
<g transform="translate(0.000000,3897.000000) scale(0.100000,-0.100000)"
fill="#000000" stroke="none">
<path d="M35087 29034 c-1 -1 -121 -5 -267 -9 -146 -3 -290 -8 -320 -10 -332
-19 -471 -29 -580 -40 -25 -3 -72 -7 -105 -10 -33 -3 -82 -8 -110 -11 -84 -9
-118 -13 -175 -19 -30 -3 -71 -8 -90 -10 -19 -3 -55 -7 -80 -10 -25 -3 -56 -7
-70 -10 -14 -2 -50 -7 -80 -10 -30 -3 -95 -12 -145 -20 -49 -8 -121 -19 -160
-25 -38 -5 -81 -12 -95 -15 -14 -2 -92 -16 -175 -29 -82 -14 -161 -28 -175
-31 -14 -3 -36 -7 -50 -10 -104 -19 -149 -28 -250 -50 -63 -13 -126 -27 -140
-29 -14 -3 -86 -19 -160 -36 -74 -17 -142 -33 -150 -35 -8 -2 -71 -17 -140
-35 -69 -18 -132 -33 -140 -35 -181 -36 -1101 -322 -1360 -421 -36 -14 -90
-35 -120 -46 -106 -39 -436 -167 -495 -193 -16 -7 -86 -36 -155 -65 -315 -132
-916 -418 -1190 -565 -308 -167 -436 -239 -708 -400 -309 -183 -714 -449
-1042 -683 -161 -115 -538 -398 -550 -412 -3 -3 -36 -30 -75 -60 -70 -54 -466
-382 -496 -410 -9 -8 -44 -40 -79 -70 -35 -30 -68 -59 -74 -65 -7 -5 -36 -32
-66 -59 -360 -324 -930 -897 -1180 -1185 -11 -14 -45 -52 -74 -85 -30 -34 -85
-97 -122 -141 -38 -44 -77 -89 -88 -100 -10 -11 -105 -128 -210 -260 -268
-333 -505 -651 -687 -920 -41 -60 -76 -112 -79 -115 -6 -6 -43 -61 -50 -75 -3
-5 -41 -64 -84 -130 -81 -122 -266 -415 -266 -421 0 -2 -60 -103 -110 -184 -5
-8 -31 -53 -58 -100 -27 -47 -59 -103 -72 -125 -150 -261 -437 -824 -573
-1125 -13 -30 -38 -84 -55 -120 -16 -36 -55 -126 -86 -200 -32 -74 -63 -148
-71 -165 -7 -16 -23 -55 -35 -85 -12 -30 -26 -64 -31 -75 -46 -110 -235 -608
-244 -645 -2 -8 -24 -73 -49 -145 -44 -123 -133 -397 -161 -495 -66 -225 -146
-510 -150 -530 -3 -14 -9 -40 -14 -57 -6 -20 -6 -33 0 -33 5 0 9 3 9 8 0 4 19
28 43 53 52 58 166 185 190 213 15 17 60 67 172 191 70 77 130 142 234 253 68
73 133 142 143 155 150 173 1012 1032 1307 1303 35 33 76 70 90 84 14 14 96
88 181 165 85 77 157 142 160 145 9 9 234 205 305 265 38 33 76 65 83 72 7 7
34 29 60 50 26 21 52 43 57 49 33 35 552 449 765 610 437 331 960 690 1275
877 11 7 22 15 25 18 3 3 10 8 15 10 6 2 98 56 205 120 107 64 240 141 295
171 55 31 123 68 150 83 239 133 672 341 969 467 105 44 209 88 231 98 64 28
337 128 495 182 336 114 633 197 1025 285 11 2 31 6 45 9 14 2 48 9 75 15 28
5 88 17 135 25 47 8 99 17 115 20 17 3 45 7 64 10 19 2 47 6 62 9 15 3 47 7
70 10 24 3 55 8 69 10 14 2 48 6 75 9 28 4 68 8 90 11 22 2 72 7 110 11 39 3
84 8 100 9 191 20 778 27 1050 12 82 -5 152 -10 155 -12 3 -1 46 -6 95 -10 50
-4 101 -9 115 -10 14 -2 30 -3 36 -4 8 -1 9 -14 3 -43 -4 -24 -22 -115 -40
-203 -43 -218 -52 -267 -63 -310 -14 -62 -25 -113 -29 -135 -12 -66 -135 -549
-187 -735 -105 -373 -229 -763 -333 -1045 -3 -8 -24 -67 -47 -130 -288 -785
-659 -1566 -1110 -2335 -167 -286 -483 -769 -695 -1065 -50 -69 -365 -488
-388 -515 -9 -11 -60 -74 -113 -140 -99 -123 -161 -200 -179 -219 -5 -6 -35
-40 -65 -76 -30 -36 -57 -67 -60 -70 -3 -3 -30 -34 -60 -70 -30 -35 -62 -72
-70 -80 -8 -9 -49 -54 -90 -100 -104 -116 -107 -120 -233 -255 -122 -130 -544
-554 -673 -675 -162 -151 -211 -197 -294 -270 -47 -41 -92 -81 -101 -90 -73
-70 -462 -399 -644 -544 -60 -49 -119 -96 -130 -105 -126 -104 -604 -460 -850
-632 -155 -109 -601 -408 -738 -495 -42 -27 -103 -66 -135 -86 -31 -21 -64
-41 -72 -45 -8 -4 -51 -30 -95 -58 -69 -44 -263 -160 -560 -335 -44 -26 -105
-60 -135 -77 -30 -16 -107 -59 -170 -95 -481 -272 -1239 -654 -1820 -918 -118
-54 -235 -107 -260 -118 -25 -11 -115 -51 -200 -87 -85 -37 -179 -78 -208 -91
-29 -13 -58 -24 -65 -24 -7 0 -17 -4 -22 -9 -6 -4 -95 -43 -200 -85 -104 -43
-203 -84 -220 -91 -30 -14 -240 -98 -350 -140 -33 -12 -168 -64 -299 -114
-669 -256 -1832 -650 -2361 -801 -33 -9 -67 -19 -75 -22 -8 -3 -35 -11 -60
-18 -25 -7 -63 -19 -85 -26 -22 -7 -115 -34 -207 -60 -92 -26 -166 -49 -165
-51 2 -1 23 -5 48 -7 55 -7 112 -14 164 -22 65 -9 88 -13 130 -18 56 -8 361
-45 415 -51 64 -7 219 -25 255 -30 17 -2 62 -6 100 -10 39 -3 81 -8 95 -10 14
-3 61 -7 105 -10 44 -4 91 -8 105 -10 14 -3 61 -7 105 -10 44 -3 91 -8 105
-10 14 -2 63 -7 110 -11 47 -3 101 -7 120 -9 19 -2 80 -6 135 -10 55 -4 118
-8 140 -10 22 -2 92 -7 155 -10 63 -3 139 -8 168 -11 30 -2 108 -7 175 -10 67
-3 160 -7 207 -9 556 -26 1457 -26 2080 0 88 4 311 16 357 20 23 2 88 6 145 9
57 4 123 9 148 11 25 2 79 7 120 10 41 3 91 8 110 10 19 2 69 7 110 10 41 4
104 10 140 15 36 4 72 8 80 8 8 -1 40 2 70 6 30 4 109 14 175 22 66 8 138 17
160 19 41 6 100 14 145 20 14 2 48 7 75 10 28 4 88 12 135 20 47 8 103 17 125
20 54 8 75 11 185 29 92 16 118 20 170 31 14 2 41 7 60 10 31 5 157 29 215 40
56 12 273 57 290 61 11 2 34 7 50 9 17 3 38 8 47 11 17 5 46 12 88 20 201 39
868 220 1170 316 299 95 864 295 955 338 11 5 61 25 110 45 50 20 99 40 110
45 11 5 65 28 120 51 55 23 123 52 150 64 28 13 102 46 165 75 142 64 518 251
660 326 161 86 448 248 505 284 17 11 37 23 45 27 93 44 608 382 854 559 98
71 188 136 200 144 11 8 93 71 181 139 300 233 581 473 865 736 100 93 528
522 610 611 36 38 88 95 115 125 28 30 82 90 120 134 39 44 73 82 77 85 3 3
21 24 40 46 18 23 87 106 154 185 216 258 425 529 639 829 125 176 434 639
504 755 23 39 80 132 126 209 47 76 85 140 85 143 0 2 15 27 33 56 34 53 105
178 172 302 21 39 46 85 57 103 56 93 381 735 472 932 92 199 104 225 129 280
13 30 34 77 47 104 110 242 362 867 471 1166 190 524 321 918 455 1370 14 47
29 96 34 110 5 14 39 133 76 265 59 212 73 263 88 325 2 8 25 96 51 195 45
169 59 226 121 485 59 244 129 554 168 746 3 10 14 64 26 119 12 55 24 111 26
125 2 14 9 45 14 70 5 25 12 57 15 73 3 15 7 37 10 50 4 21 41 214 51 267 2
14 11 59 19 100 8 41 16 86 19 100 7 42 16 94 20 120 2 14 7 36 10 50 3 14 8
41 11 60 2 19 9 62 15 95 6 33 13 71 15 85 2 14 13 79 24 145 11 66 23 140 26
165 20 142 111 531 189 805 1 6 8 30 15 55 44 156 161 501 206 605 7 17 34 82
60 145 69 168 199 433 300 610 280 493 611 891 1006 1209 63 50 119 96 126
101 6 5 58 41 115 79 56 39 108 75 115 81 7 5 14 10 17 10 2 0 51 28 107 61
206 122 501 254 749 334 63 20 122 39 130 42 13 5 -167 56 -245 69 -16 3 -43
9 -60 14 -26 7 -142 33 -201 44 -12 3 -64 14 -115 25 -52 11 -110 23 -129 26
-19 3 -66 12 -105 20 -38 8 -110 21 -160 30 -49 8 -99 17 -110 19 -11 2 -42 7
-68 10 -27 4 -59 10 -70 12 -12 3 -40 7 -62 10 -22 3 -51 7 -65 10 -30 5 -151
23 -200 29 -19 3 -45 7 -57 9 -12 3 -46 7 -75 11 -29 3 -69 7 -88 10 -19 2
-57 7 -85 10 -27 3 -66 8 -85 10 -19 2 -60 7 -90 10 -30 3 -71 8 -90 10 -19 2
-66 7 -105 10 -38 3 -81 8 -95 10 -14 2 -74 6 -135 10 -60 4 -123 8 -140 10
-16 2 -84 7 -150 10 -66 4 -145 8 -175 10 -145 9 -896 25 -903 19z"/>
<path d="M3987 24134 c-1 -1 -103 -5 -227 -8 -215 -7 -259 -9 -412 -21 -38 -3
-101 -7 -140 -10 -40 -3 -91 -8 -113 -10 -22 -3 -69 -7 -105 -10 -36 -3 -76
-7 -90 -10 -14 -2 -54 -6 -90 -10 -36 -3 -94 -10 -130 -15 -36 -5 -87 -12
-115 -16 -27 -3 -59 -8 -70 -9 -11 -2 -51 -8 -90 -14 -38 -6 -80 -13 -91 -15
-12 -2 -39 -7 -60 -11 -72 -11 -99 -15 -124 -20 -14 -3 -41 -7 -60 -10 -19 -3
-78 -14 -130 -25 -52 -11 -106 -21 -120 -24 -67 -12 -365 -80 -511 -116 -339
-85 -843 -240 -1149 -353 -175 -65 -173 -55 -18 -87 76 -16 142 -31 146 -34 5
-3 22 -8 39 -10 40 -8 273 -87 353 -121 562 -238 1037 -641 1404 -1190 36 -55
71 -107 76 -115 75 -110 259 -458 347 -655 33 -75 143 -343 147 -360 2 -5 6
-17 9 -25 3 -8 18 -49 32 -90 15 -41 32 -93 40 -115 8 -22 34 -110 59 -195 84
-291 97 -335 182 -606 80 -260 272 -836 299 -899 7 -16 30 -77 50 -135 86
-241 331 -860 403 -1020 11 -25 44 -99 72 -165 29 -66 70 -158 91 -203 22 -46
39 -86 39 -87 0 -7 142 -299 251 -517 131 -263 281 -542 446 -828 283 -493
658 -1050 1017 -1510 78 -100 261 -326 276 -340 3 -3 30 -34 60 -70 30 -36 59
-70 65 -76 5 -6 39 -44 75 -84 131 -149 189 -210 415 -435 313 -314 395 -389
715 -659 14 -11 59 -48 100 -80 41 -33 77 -63 80 -66 9 -10 350 -263 460 -341
93 -65 275 -186 344 -229 14 -8 75 -46 137 -85 62 -38 118 -72 124 -74 5 -2
38 -22 73 -43 34 -21 65 -38 67 -38 3 0 22 -10 43 -23 113 -71 548 -290 757
-381 72 -32 144 -63 160 -71 141 -64 530 -211 743 -281 130 -43 365 -115 437
-135 131 -35 370 -98 395 -103 14 -3 45 -10 70 -17 108 -26 288 -65 445 -94
31 -6 239 -43 285 -50 14 -2 72 -11 130 -20 58 -9 116 -17 130 -20 14 -2 50
-7 80 -11 30 -4 64 -8 75 -9 11 -2 45 -6 75 -9 30 -4 71 -9 90 -11 37 -4 107
-12 188 -20 26 -2 70 -7 97 -10 28 -2 86 -7 130 -10 44 -3 109 -8 145 -10 452
-34 1116 -37 1665 -10 144 7 291 16 335 20 25 3 81 7 125 10 44 3 96 8 115 10
19 2 71 7 115 10 44 4 96 8 115 11 41 4 103 11 180 19 30 3 66 7 80 10 14 2
53 7 87 10 34 3 70 7 80 9 10 2 43 7 74 10 31 4 65 8 75 10 23 4 94 14 149 21
80 10 107 14 133 19 15 3 43 8 62 10 19 2 62 9 95 15 33 5 80 13 105 16 65 9
103 15 120 20 8 2 31 7 50 10 115 19 229 39 415 75 95 18 400 81 490 100 50
11 99 22 110 24 11 3 81 19 155 36 74 17 144 33 155 35 50 11 516 128 565 142
l55 16 -140 24 c-77 13 -154 25 -170 27 -17 3 -42 7 -55 10 -14 3 -36 8 -50
10 -14 2 -43 7 -65 11 -47 8 -399 73 -435 80 -14 3 -59 12 -100 20 -41 8 -154
31 -250 51 -96 19 -186 38 -200 40 -14 3 -63 14 -110 25 -47 10 -127 28 -178
39 -52 11 -119 26 -150 34 -32 8 -68 17 -82 20 -14 2 -101 23 -195 46 -93 23
-177 43 -185 45 -68 14 -615 162 -855 232 -413 120 -1101 346 -1390 456 -22 9
-78 29 -125 47 -47 17 -94 35 -105 39 -11 5 -103 42 -205 82 -180 71 -560 229
-650 271 -25 12 -88 40 -140 63 -255 113 -886 427 -1055 525 -27 16 -52 30
-170 95 -111 61 -408 237 -468 276 -32 22 -60 39 -62 39 -7 0 -217 135 -380
244 -219 146 -297 201 -525 370 -63 47 -126 93 -139 103 -145 106 -644 520
-757 628 -6 5 -55 51 -109 100 -114 105 -466 454 -575 570 -67 72 -153 167
-276 304 -53 60 -201 236 -239 285 -16 21 -34 44 -40 50 -30 33 -136 171 -251
326 -216 290 -379 532 -548 810 -49 80 -97 157 -107 172 -11 15 -19 30 -19 33
0 3 -34 65 -76 138 -112 194 -296 549 -392 757 -169 367 -293 666 -417 1012
-55 149 -185 543 -185 557 0 7 83 26 200 47 14 3 32 7 40 9 47 14 334 58 465
70 39 4 81 9 95 10 156 20 713 26 905 11 55 -4 123 -9 150 -11 28 -2 68 -6 90
-9 22 -3 69 -8 105 -11 36 -3 76 -8 90 -10 14 -2 45 -7 70 -10 115 -16 354
-59 455 -81 39 -9 81 -18 95 -20 45 -9 234 -54 285 -68 28 -8 102 -29 165 -46
173 -48 623 -198 745 -249 11 -5 101 -42 200 -81 99 -40 217 -90 263 -112 45
-21 84 -38 87 -38 14 0 514 -246 685 -338 568 -304 1195 -699 1770 -1116 153
-111 295 -215 330 -243 8 -6 35 -27 60 -45 83 -63 356 -275 381 -296 13 -12
40 -34 60 -49 90 -69 420 -342 545 -450 33 -28 100 -85 149 -128 146 -125 291
-252 331 -290 12 -11 33 -31 48 -44 l26 -25 -19 55 c-20 57 -42 112 -67 166
-8 17 -14 34 -14 37 0 6 -17 45 -93 216 -11 25 -35 81 -54 125 -48 109 -291
599 -353 710 -27 50 -53 97 -56 105 -15 31 -129 230 -213 368 -47 78 -90 151
-96 160 -72 128 -443 675 -532 787 -5 6 -59 77 -122 159 -146 192 -363 458
-466 572 -5 6 -37 41 -70 78 -244 277 -559 596 -854 866 -57 52 -109 100 -115
105 -13 12 -209 181 -246 213 -21 17 -178 145 -296 240 -44 36 -417 316 -435
327 -9 6 -86 58 -170 116 -155 108 -396 266 -453 299 -17 9 -83 50 -146 89
-63 39 -121 74 -129 78 -7 3 -52 28 -100 56 -249 143 -637 343 -916 472 -93
43 -543 235 -595 254 -19 7 -44 17 -55 22 -170 76 -849 301 -1160 384 -33 9
-85 23 -115 31 -30 9 -62 17 -70 19 -8 2 -82 20 -165 40 -225 54 -266 63 -310
72 -22 4 -42 8 -45 8 -9 2 -84 17 -103 21 -10 2 -26 5 -35 8 -9 3 -33 7 -52
10 -19 3 -46 8 -60 11 -14 3 -117 21 -230 39 -187 32 -260 43 -330 51 -14 2
-61 8 -105 14 -44 6 -93 13 -110 15 -16 2 -61 7 -100 10 -38 4 -86 9 -105 11
-19 2 -66 7 -105 10 -38 4 -88 8 -110 10 -239 21 -615 37 -933 39 -101 0 -184
0 -185 0z"/>
<path d="M19002 21216 c-83 -47 -210 -123 -283 -171 -119 -78 -160 -106 -254
-178 -44 -34 -179 -140 -191 -152 -6 -5 -35 -30 -64 -55 -81 -69 -327 -316
-404 -405 -37 -44 -78 -91 -90 -105 -115 -133 -312 -420 -440 -640 -72 -124
-207 -406 -265 -553 -92 -231 -198 -587 -228 -757 -2 -14 -6 -32 -8 -40 -2 -8
-7 -37 -11 -65 -3 -27 -8 -53 -10 -57 -2 -3 -7 -30 -10 -60 -3 -29 -7 -55 -9
-58 -2 -3 -6 -37 -10 -75 -4 -39 -9 -78 -11 -89 -25 -134 -25 -727 0 -936 18
-147 51 -346 76 -460 10 -47 21 -96 24 -110 41 -209 184 -610 313 -880 l21
-45 2 75 c6 268 24 554 45 750 12 114 17 148 20 170 2 14 7 49 10 79 4 30 9
63 11 75 2 11 6 38 9 61 5 32 41 226 59 320 2 11 22 92 44 180 110 434 282
836 475 1110 15 22 39 58 54 80 14 22 29 42 32 45 3 3 24 28 46 55 69 86 206
225 300 302 121 100 124 103 131 103 3 0 12 7 20 15 27 26 25 28 91 -95 255
-473 426 -973 489 -1425 3 -27 8 -58 10 -69 2 -10 6 -44 9 -75 4 -31 8 -72 11
-91 22 -183 21 -736 -1 -845 -3 -11 -7 -47 -9 -80 -7 -80 -24 -209 -36 -265
-5 -25 -11 -61 -14 -80 -13 -93 -98 -457 -126 -540 -5 -14 -20 -65 -35 -115
-84 -284 -219 -631 -363 -935 -20 -41 -36 -77 -37 -80 -7 -29 -199 -393 -303
-575 -123 -213 -168 -289 -283 -467 -49 -76 -86 -138 -83 -138 17 0 543 366
601 419 10 9 29 23 43 32 31 21 279 227 380 317 79 70 367 356 435 432 77 85
201 235 266 320 35 47 66 87 69 90 3 3 10 12 15 21 6 9 44 67 86 130 123 186
177 279 260 449 113 229 182 407 245 622 38 132 88 360 98 445 3 28 8 57 11
65 2 7 7 38 9 68 3 30 9 91 13 135 16 156 7 666 -13 770 -2 11 -6 45 -9 75 -4
30 -8 62 -10 70 -2 8 -7 38 -11 65 -3 28 -12 80 -20 117 -7 37 -16 82 -19 100
-3 18 -15 69 -26 113 -11 44 -22 90 -25 102 -30 151 -200 646 -296 863 -11 25
-26 59 -33 75 -52 122 -223 467 -299 604 -25 46 -46 87 -46 92 0 5 -4 9 -10 9
-5 0 -10 4 -10 10 0 5 -18 39 -40 75 -22 36 -40 67 -40 69 0 3 -22 40 -48 83
-90 144 -187 341 -230 468 -91 266 -112 456 -76 705 13 94 84 283 139 369 14
24 25 45 23 47 -3 2 -72 -34 -156 -80z"/>
</g>
</svg>
