<svg width="18" height="21" viewBox="0 0 18 21" fill="none" xmlns="http://www.w3.org/2000/svg">
<path d="M2.25 21C1.63125 21 1.10175 20.8043 0.6615 20.413C0.22125 20.0217 0.00075 19.5507 0 19V9C0 8.45 0.2205 7.97933 0.6615 7.588C1.1025 7.19667 1.632 7.00067 2.25 7H3.375V5C3.375 3.61667 3.92362 2.43767 5.02087 1.463C6.11812 0.488333 7.4445 0.000666667 9 0C10.5562 0 11.883 0.487667 12.9802 1.463C14.0775 2.43833 14.6257 3.61733 14.625 5V7H15.75C16.3687 7 16.8986 7.196 17.3396 7.588C17.7806 7.98 18.0007 8.45067 18 9V19C18 19.55 17.7799 20.021 17.3396 20.413C16.8994 20.805 16.3695 21.0007 15.75 21H2.25ZM9 16C9.61875 16 10.1486 15.8043 10.5896 15.413C11.0306 15.0217 11.2507 14.5507 11.25 14C11.25 13.45 11.0299 12.9793 10.5896 12.588C10.1494 12.1967 9.6195 12.0007 9 12C8.38125 12 7.85175 12.196 7.4115 12.588C6.97125 12.98 6.75075 13.4507 6.75 14C6.75 14.55 6.9705 15.021 7.4115 15.413C7.8525 15.805 8.382 16.0007 9 16ZM5.625 7H12.375V5C12.375 4.16667 12.0469 3.45833 11.3906 2.875C10.7344 2.29167 9.9375 2 9 2C8.0625 2 7.26562 2.29167 6.60937 2.875C5.95312 3.45833 5.625 4.16667 5.625 5V7Z" fill="white"/>
</svg>
