<svg width="32" height="32" viewBox="0 0 32 32" fill="none" xmlns="http://www.w3.org/2000/svg">
<g clip-path="url(#clip0_147_1473)">
<path fill-rule="evenodd" clip-rule="evenodd" d="M15.9999 18.8292L23.0705 25.8999C23.4457 26.2751 23.9546 26.4859 24.4852 26.4859C25.0158 26.4859 25.5247 26.2751 25.8999 25.8999C26.2751 25.5247 26.4859 25.0158 26.4859 24.4852C26.4859 23.9546 26.2751 23.4458 25.8999 23.0706L18.8265 15.9999L25.8985 8.92924C26.0842 8.74346 26.2315 8.52293 26.332 8.28023C26.4324 8.03754 26.4841 7.77743 26.484 7.51476C26.484 7.2521 26.4322 6.99202 26.3316 6.74937C26.231 6.50672 26.0837 6.28626 25.8979 6.10057C25.7121 5.91488 25.4916 5.7676 25.2489 5.66714C25.0062 5.56668 24.7461 5.515 24.4834 5.51507C24.2207 5.51513 23.9607 5.56693 23.718 5.6675C23.4754 5.76808 23.2549 5.91546 23.0692 6.10124L15.9999 13.1719L8.92921 6.10124C8.74481 5.91013 8.52419 5.75766 8.28023 5.65273C8.03627 5.5478 7.77386 5.49251 7.50831 5.49007C7.24275 5.48764 6.97937 5.53812 6.73353 5.63857C6.48769 5.73901 6.26432 5.88741 6.07644 6.07511C5.88857 6.26281 5.73996 6.48604 5.63928 6.73178C5.5386 6.97753 5.48788 7.24086 5.49006 7.50642C5.49224 7.77198 5.54729 8.03444 5.65199 8.2785C5.75669 8.52256 5.90895 8.74332 6.09988 8.9279L13.1732 15.9999L6.10121 23.0719C5.91028 23.2565 5.75802 23.4772 5.65332 23.7213C5.54862 23.9654 5.49357 24.2278 5.49139 24.4934C5.48921 24.7589 5.53994 25.0223 5.64061 25.268C5.74129 25.5138 5.8899 25.737 6.07778 25.9247C6.26565 26.1124 6.48902 26.2608 6.73486 26.3612C6.9807 26.4617 7.24408 26.5122 7.50964 26.5097C7.77519 26.5073 8.03761 26.452 8.28157 26.3471C8.52552 26.2421 8.74614 26.0897 8.93055 25.8986L15.9999 18.8292Z" fill="#1F1F1F"/>
</g>
<defs>
<clipPath id="clip0_147_1473">
<rect width="32" height="32" fill="white"/>
</clipPath>
</defs>
</svg>
