<svg width="36" height="36" viewBox="0 0 36 36" fill="none" xmlns="http://www.w3.org/2000/svg">
<path d="M2.25 18C2.25 21.1151 3.17372 24.1602 4.90435 26.7502C6.63499 29.3403 9.0948 31.359 11.9727 32.5511C14.8507 33.7432 18.0175 34.0551 21.0727 33.4474C24.1279 32.8397 26.9343 31.3396 29.1369 29.1369C31.3396 26.9343 32.8397 24.1279 33.4474 21.0727C34.0551 18.0175 33.7432 14.8507 32.5511 11.9727C31.359 9.0948 29.3403 6.63499 26.7502 4.90435C24.1602 3.17372 21.1151 2.25 18 2.25C13.8228 2.25 9.81677 3.90937 6.86307 6.86307C3.90937 9.81677 2.25 13.8228 2.25 18ZM9 16.875H22.6687L16.3912 10.5671L18 9L27 18L18 27L16.3912 25.3946L22.6687 19.125H9V16.875Z" fill="white"/>
</svg>
